<svg width="33" height="24" viewBox="0 0 33 24" fill="none" xmlns="http://www.w3.org/2000/svg">
<path d="M32.6687 5.60006C32.6687 5.60006 32.3562 3.39381 31.3937 2.42506C30.175 1.15006 28.8125 1.1438 28.1875 1.0688C23.7125 0.743805 16.9937 0.743805 16.9937 0.743805H16.9812C16.9812 0.743805 10.2625 0.743805 5.78749 1.0688C5.16249 1.1438 3.79999 1.15006 2.58124 2.42506C1.61874 3.39381 1.31249 5.60006 1.31249 5.60006C1.31249 5.60006 0.987488 8.19381 0.987488 10.7813V13.2063C0.987488 15.7938 1.30624 18.3876 1.30624 18.3876C1.30624 18.3876 1.61874 20.5938 2.57499 21.5626C3.79374 22.8376 5.39374 22.7938 6.10624 22.9313C8.66874 23.1751 16.9875 23.2501 16.9875 23.2501C16.9875 23.2501 23.7125 23.2376 28.1875 22.9188C28.8125 22.8438 30.175 22.8376 31.3937 21.5626C32.3562 20.5938 32.6687 18.3876 32.6687 18.3876C32.6687 18.3876 32.9875 15.8001 32.9875 13.2063V10.7813C32.9875 8.19381 32.6687 5.60006 32.6687 5.60006ZM13.6812 16.1501V7.1563L22.325 11.6688L13.6812 16.1501Z" fill="#676767"/>
</svg>
